<?xml version="1.0" encoding="UTF-8"?>
<svg version="1.1" xmlns="http://www.w3.org/2000/svg" width="600" height="600">
<path d="M0 0 C-0.03029297 0.89082275 -0.06058594 1.78164551 -0.09179688 2.69946289 C-0.20561317 6.08221441 -0.3171426 9.46502673 -0.42724609 12.84790039 C-0.4748674 14.29747388 -0.52333679 15.74701982 -0.57275391 17.1965332 C-1.09592145 32.57659133 -1.15190354 47.8817837 -0.25 63.25 C-0.20709839 63.98233856 -0.16419678 64.71467712 -0.11999512 65.46920776 C3.73185965 129.17196668 24.28195608 184.31131072 70.125 229.125 C78.26503269 237.08332587 86.00866202 244.9922018 93 254 C93.58587891 254.73750488 94.17175781 255.47500977 94.77539062 256.23486328 C112.76289087 278.89764436 130.64897586 302.24007328 144 328 C144.34756348 328.66386719 144.69512695 329.32773437 145.05322266 330.01171875 C154.03098517 347.38002945 159.8843737 366.42341468 161 386 C161.08121094 387.40958984 161.08121094 387.40958984 161.1640625 388.84765625 C162.15010587 423.58327506 147.35268376 456.59068605 124 481.8125 C122.50507802 483.38330389 120.99746591 484.93972475 119.47802734 486.48681641 C118.02292143 487.97653336 116.59799207 489.49064031 115.17578125 491.01171875 C107.23840442 499.37453134 98.34030742 506.27201555 89 513 C88.37754395 513.45117188 87.75508789 513.90234375 87.11376953 514.3671875 C63.19155192 531.52411618 35.72190279 542.5723932 6.8125 547.8125 C6.12978027 547.93657227 5.44706055 548.06064453 4.74365234 548.18847656 C0.45774164 548.90721202 -3.65937672 549.10696737 -8 549 C-7.5875 548.35675781 -7.175 547.71351563 -6.75 547.05078125 C-4.82519218 544.03897259 -2.91262794 541.01955682 -1 538 C-0.35160156 536.989375 0.29679687 535.97875 0.96484375 534.9375 C31.47183354 486.60959538 42.24761493 429.63929674 30.09863281 373.71313477 C26.95165384 360.01146014 22.26724584 347.01681764 17 334 C16.67 334 16.34 334 16 334 C15.96036133 334.64098633 15.92072266 335.28197266 15.87988281 335.94238281 C10.98095523 412.45767715 -13.68845074 506.68845074 -70 563 C-115.81970242 571.68514408 -168.71467824 555.95350372 -206.73583984 530.69677734 C-253.33016588 498.67376781 -283.63572606 452.17415722 -294.0546875 396.609375 C-302.58926185 347.45761246 -291.31540164 289.48691841 -263.21484375 248.1015625 C-262.48394531 247.07804688 -261.75304687 246.05453125 -261 245 C-260.25878906 243.95585937 -259.51757812 242.91171875 -258.75390625 241.8359375 C-254.50964683 236.02490641 -249.99049643 230.5819513 -245.109375 225.296875 C-243.22100188 223.24064649 -241.42019417 221.13713592 -239.625 219 C-227.83681376 205.47257317 -227.83681376 205.47257317 -221 203 C-220.34 203.33 -219.68 203.66 -219 204 C-217.82766554 207.51700339 -217.7392575 210.79877135 -217.60546875 214.46484375 C-217.53976044 215.99320841 -217.47298753 217.52152758 -217.40527344 219.04980469 C-217.37042847 219.84849976 -217.3355835 220.64719482 -217.29968262 221.47009277 C-215.37751317 263.74736276 -201.63474164 297.44713908 -171.36328125 327.62890625 C-170.04934388 328.94718722 -168.74879745 330.28079447 -167.5078125 331.66796875 C-156.99705292 343.21792772 -142.33711636 349.66349116 -128 355 C-132.27357981 342.44665953 -136.74697754 330.07941491 -142.375 318.0625 C-143.06045898 316.59828613 -143.06045898 316.59828613 -143.75976562 315.10449219 C-144.22189453 314.11739258 -144.68402344 313.13029297 -145.16015625 312.11328125 C-168.98054604 261.1661755 -176.55631871 211.6463466 -157.2878418 157.49536133 C-147.52819118 131.20694423 -132.89504295 107.51281337 -115 86 C-114.58588867 85.4956543 -114.17177734 84.99130859 -113.74511719 84.47167969 C-107.7358733 77.17256184 -101.43237767 70.2526769 -94.75 63.5625 C-94.10095703 62.91265137 -93.45191406 62.26280273 -92.78320312 61.59326172 C-88.34491517 57.20566487 -83.73713461 53.06134505 -79 49 C-78.44070801 48.51265381 -77.88141602 48.02530762 -77.30517578 47.52319336 C-22.42476685 0 -22.42476685 0 0 0 Z " fill="#F79333" transform="translate(368,18)"/>
</svg>
